<svg width="200" height="200" viewBox="0 0 200 200" fill="none" xmlns="http://www.w3.org/2000/svg">
<rect width="100" height="100" transform="matrix(1 0 0 -1 100 100)" fill="#2C6269"/>
<path fill-rule="evenodd" clip-rule="evenodd" d="M100 200C44.7715 200 0 155.228 0 100C0 44.7715 44.7715 0 100 0C155.228 0 200 44.7715 200 100C200 155.228 155.228 200 100 200ZM100 133C81.7746 133 67 118.225 67 100C67 81.7746 81.7746 67 100 67C118.225 67 133 81.7746 133 100C133 118.225 118.225 133 100 133Z" fill="#012F34"/>
<path fill-rule="evenodd" clip-rule="evenodd" d="M100 56H200V60H100V56ZM100 64H200V68H100V64ZM200 72H100V76H200V72ZM100 80H200V84H100V80ZM200 88H100V92H200V88ZM100 96H200V100H100V96Z" fill="#79C8C7"/>
<path fill-rule="evenodd" clip-rule="evenodd" d="M200 100H196V104H200V100ZM189 100H193V104H189V100ZM189 108H193V112H189V108ZM193 116H189V120H193V116ZM189 124H193V128H189V124ZM193 132H189V136H193V132ZM189 140H193V144H189V140ZM186 100H182V104H186V100ZM186 108H182V112H186V108ZM182 116H186V120H182V116ZM186 124H182V128H186V124ZM182 132H186V136H182V132ZM186 140H182V144H186V140ZM200 108H196V112H200V108ZM179 100H175V104H179V100ZM179 108H175V112H179V108ZM175 116H179V120H175V116ZM179 124H175V128H179V124ZM175 132H179V136H175V132ZM179 140H175V144H179V140ZM200 116H196V120H200V116ZM172 100H168V104H172V100ZM172 108H168V111.116L164.54 112.698L166.202 116.336L169.84 114.673L168.618 112H172V108ZM168 116H172V120H168V116ZM172 124H168V128H172V124ZM168 132H172V136H168V132ZM172 140H168V144H172V140ZM200 124H196V128H200V124ZM165 100H161V104H165V100ZM165 108H161V112H165V108ZM161.651 116H165V120H161V118.714L158.926 119.662L158 117.635V120H154.683L155.288 121.325L151.65 122.988L149.988 119.35L153.626 117.687L154 118.506V116H157.316L160.902 114.361L161.651 116ZM165 124H161V128H165V124ZM161 132H165V136H161V132ZM165 140H161V144H165V140ZM200 132H196V136H200V132ZM158 100H154V104H158V100ZM158 108H154V112H158V108ZM158 124H154V128H158V124ZM154 132H158V136H154V132ZM158 140H154V144H158V140ZM200 140H196V144H200V140ZM148.012 124.65L146.35 121.012L142.712 122.675L144.374 126.313L148.012 124.65ZM139.074 124.338L140.736 127.976L137.098 129.639L135.436 126.001L139.074 124.338ZM133.46 131.302L131.798 127.664L128.16 129.327L129.822 132.965L133.46 131.302Z" fill="#F67E7E"/>
</svg>
